# xmcd CD database file
#
# Track frame offsets:
#	150
#	22018
#	36956
#	50695
#	69620
#	82392
#	102356
#	120530
#	131636
#	145439
#	169421
#	192680
#
# Disc length: 2737 seconds
#
# Revision: 0
# Processed by: cddbd v1.5.2PL0 Copyright (c) Steve Scherf et al.
# Submitted via: CDex 1.70beta2
#
DISCID=c10aaf0c
DTITLE=Rob Rio - Blues From The Vault
DYEAR=2011
DGENRE=Blues
TTITLE0=Down The Road A Piece
TTITLE1=Tight Dresses
TTITLE2=Preachin' Blues
TTITLE3=It Hurts Me Too
TTITLE4=Stavin' Chain
TTITLE5=Wee Wee Baby
TTITLE6=Railroad Porter
TTITLE7=Go Ahead And Cry
TTITLE8=El Capitan
TTITLE9=Slow Freight
TTITLE10=Greyhound
TTITLE11=Fool's Paradise
EXTD=YEAR: 2011
EXTT0=
EXTT1=
EXTT2=
EXTT3=
EXTT4=
EXTT5=
EXTT6=
EXTT7=
EXTT8=
EXTT9=
EXTT10=
EXTT11=
PLAYORDER=
